<mxfile host="app.diagrams.net" modified="2023-04-15T15:27:05.874Z" agent="Mozilla/5.0 (X11; Linux x86_64) AppleWebKit/537.36 (KHTML, like Gecko) Chrome/112.0.0.0 Safari/537.36" etag="cWOgEObQWvJz0aUS-HuK" version="21.1.4" type="device">
  <diagram name="PÃ¡gina-1" id="KYIheEoC8tRnuUl6H3Pk">
    <mxGraphModel dx="2195" dy="1069" grid="1" gridSize="10" guides="1" tooltips="1" connect="1" arrows="1" fold="1" page="1" pageScale="1" pageWidth="1654" pageHeight="1169" math="0" shadow="0">
      <root>
        <mxCell id="0" />
        <mxCell id="1" parent="0" />
        <mxCell id="t5-hV-VTmuxuqYwfx8Ca-10" style="edgeStyle=orthogonalEdgeStyle;rounded=0;orthogonalLoop=1;jettySize=auto;html=1;exitX=0.5;exitY=1;exitDx=0;exitDy=0;strokeColor=#000000;" edge="1" parent="1" source="t5-hV-VTmuxuqYwfx8Ca-1" target="t5-hV-VTmuxuqYwfx8Ca-2">
          <mxGeometry relative="1" as="geometry" />
        </mxCell>
        <mxCell id="t5-hV-VTmuxuqYwfx8Ca-11" style="edgeStyle=orthogonalEdgeStyle;rounded=0;orthogonalLoop=1;jettySize=auto;html=1;exitX=0.5;exitY=1;exitDx=0;exitDy=0;entryX=0.5;entryY=0;entryDx=0;entryDy=0;strokeColor=#000000;" edge="1" parent="1" source="t5-hV-VTmuxuqYwfx8Ca-1" target="t5-hV-VTmuxuqYwfx8Ca-3">
          <mxGeometry relative="1" as="geometry" />
        </mxCell>
        <mxCell id="t5-hV-VTmuxuqYwfx8Ca-12" style="edgeStyle=orthogonalEdgeStyle;rounded=0;orthogonalLoop=1;jettySize=auto;html=1;exitX=0.5;exitY=1;exitDx=0;exitDy=0;entryX=0.5;entryY=0;entryDx=0;entryDy=0;strokeColor=#000000;" edge="1" parent="1" source="t5-hV-VTmuxuqYwfx8Ca-1" target="t5-hV-VTmuxuqYwfx8Ca-4">
          <mxGeometry relative="1" as="geometry" />
        </mxCell>
        <mxCell id="t5-hV-VTmuxuqYwfx8Ca-13" style="edgeStyle=orthogonalEdgeStyle;rounded=0;orthogonalLoop=1;jettySize=auto;html=1;exitX=0.5;exitY=1;exitDx=0;exitDy=0;entryX=0.5;entryY=0;entryDx=0;entryDy=0;strokeColor=#000000;" edge="1" parent="1" source="t5-hV-VTmuxuqYwfx8Ca-1" target="t5-hV-VTmuxuqYwfx8Ca-5">
          <mxGeometry relative="1" as="geometry" />
        </mxCell>
        <mxCell id="t5-hV-VTmuxuqYwfx8Ca-14" style="edgeStyle=orthogonalEdgeStyle;rounded=0;orthogonalLoop=1;jettySize=auto;html=1;exitX=0.5;exitY=1;exitDx=0;exitDy=0;entryX=0.5;entryY=0;entryDx=0;entryDy=0;strokeColor=#000000;" edge="1" parent="1" source="t5-hV-VTmuxuqYwfx8Ca-1" target="t5-hV-VTmuxuqYwfx8Ca-6">
          <mxGeometry relative="1" as="geometry" />
        </mxCell>
        <mxCell id="t5-hV-VTmuxuqYwfx8Ca-107" style="edgeStyle=orthogonalEdgeStyle;rounded=0;orthogonalLoop=1;jettySize=auto;html=1;exitX=0.5;exitY=1;exitDx=0;exitDy=0;entryX=0.5;entryY=0;entryDx=0;entryDy=0;strokeColor=#000000;" edge="1" parent="1" source="t5-hV-VTmuxuqYwfx8Ca-1" target="t5-hV-VTmuxuqYwfx8Ca-98">
          <mxGeometry relative="1" as="geometry" />
        </mxCell>
        <mxCell id="t5-hV-VTmuxuqYwfx8Ca-1" value="Hospital Visits Registration System" style="shape=process;whiteSpace=wrap;html=1;backgroundOutline=1;fontSize=20;fillColor=#d5e8d4;strokeColor=#000000;fontStyle=1" vertex="1" parent="1">
          <mxGeometry y="20" width="1480" height="60" as="geometry" />
        </mxCell>
        <mxCell id="t5-hV-VTmuxuqYwfx8Ca-20" value="" style="edgeStyle=orthogonalEdgeStyle;rounded=0;orthogonalLoop=1;jettySize=auto;html=1;entryX=0;entryY=0.5;entryDx=0;entryDy=0;exitX=0.25;exitY=1;exitDx=0;exitDy=0;strokeColor=#000000;fontSize=15;" edge="1" parent="1" source="t5-hV-VTmuxuqYwfx8Ca-2" target="t5-hV-VTmuxuqYwfx8Ca-19">
          <mxGeometry relative="1" as="geometry" />
        </mxCell>
        <mxCell id="t5-hV-VTmuxuqYwfx8Ca-22" style="edgeStyle=orthogonalEdgeStyle;rounded=0;orthogonalLoop=1;jettySize=auto;html=1;exitX=0.25;exitY=1;exitDx=0;exitDy=0;entryX=0;entryY=0.5;entryDx=0;entryDy=0;strokeColor=#000000;fontSize=15;" edge="1" parent="1" source="t5-hV-VTmuxuqYwfx8Ca-2" target="t5-hV-VTmuxuqYwfx8Ca-21">
          <mxGeometry relative="1" as="geometry" />
        </mxCell>
        <mxCell id="t5-hV-VTmuxuqYwfx8Ca-51" style="edgeStyle=orthogonalEdgeStyle;rounded=0;orthogonalLoop=1;jettySize=auto;html=1;exitX=0.25;exitY=1;exitDx=0;exitDy=0;entryX=0;entryY=0.5;entryDx=0;entryDy=0;strokeColor=#000000;fontSize=15;" edge="1" parent="1" source="t5-hV-VTmuxuqYwfx8Ca-2" target="t5-hV-VTmuxuqYwfx8Ca-49">
          <mxGeometry relative="1" as="geometry" />
        </mxCell>
        <mxCell id="t5-hV-VTmuxuqYwfx8Ca-52" style="edgeStyle=orthogonalEdgeStyle;rounded=0;orthogonalLoop=1;jettySize=auto;html=1;exitX=0.25;exitY=1;exitDx=0;exitDy=0;entryX=0;entryY=0.5;entryDx=0;entryDy=0;strokeColor=#000000;fontSize=15;" edge="1" parent="1" source="t5-hV-VTmuxuqYwfx8Ca-2" target="t5-hV-VTmuxuqYwfx8Ca-50">
          <mxGeometry relative="1" as="geometry" />
        </mxCell>
        <mxCell id="t5-hV-VTmuxuqYwfx8Ca-58" style="edgeStyle=orthogonalEdgeStyle;rounded=0;orthogonalLoop=1;jettySize=auto;html=1;exitX=0.25;exitY=1;exitDx=0;exitDy=0;entryX=0;entryY=0.5;entryDx=0;entryDy=0;strokeColor=#000000;fontSize=15;" edge="1" parent="1" source="t5-hV-VTmuxuqYwfx8Ca-2" target="t5-hV-VTmuxuqYwfx8Ca-57">
          <mxGeometry relative="1" as="geometry" />
        </mxCell>
        <mxCell id="t5-hV-VTmuxuqYwfx8Ca-2" value="Databases" style="rounded=0;whiteSpace=wrap;html=1;fillColor=#dae8fc;strokeColor=#000000;fontSize=15;" vertex="1" parent="1">
          <mxGeometry x="40" y="160" width="120" height="60" as="geometry" />
        </mxCell>
        <mxCell id="t5-hV-VTmuxuqYwfx8Ca-29" style="edgeStyle=orthogonalEdgeStyle;rounded=0;orthogonalLoop=1;jettySize=auto;html=1;exitX=0.25;exitY=1;exitDx=0;exitDy=0;entryX=0;entryY=0.5;entryDx=0;entryDy=0;strokeColor=#000000;fontSize=15;" edge="1" parent="1" source="t5-hV-VTmuxuqYwfx8Ca-3" target="t5-hV-VTmuxuqYwfx8Ca-26">
          <mxGeometry relative="1" as="geometry" />
        </mxCell>
        <mxCell id="t5-hV-VTmuxuqYwfx8Ca-30" style="edgeStyle=orthogonalEdgeStyle;rounded=0;orthogonalLoop=1;jettySize=auto;html=1;exitX=0.25;exitY=1;exitDx=0;exitDy=0;entryX=0;entryY=0.5;entryDx=0;entryDy=0;strokeColor=#000000;fontSize=15;" edge="1" parent="1" source="t5-hV-VTmuxuqYwfx8Ca-3" target="t5-hV-VTmuxuqYwfx8Ca-27">
          <mxGeometry relative="1" as="geometry" />
        </mxCell>
        <mxCell id="t5-hV-VTmuxuqYwfx8Ca-45" style="edgeStyle=orthogonalEdgeStyle;rounded=0;orthogonalLoop=1;jettySize=auto;html=1;exitX=0.25;exitY=1;exitDx=0;exitDy=0;entryX=0;entryY=0.5;entryDx=0;entryDy=0;strokeColor=#000000;fontSize=15;" edge="1" parent="1" source="t5-hV-VTmuxuqYwfx8Ca-3" target="t5-hV-VTmuxuqYwfx8Ca-44">
          <mxGeometry relative="1" as="geometry" />
        </mxCell>
        <mxCell id="t5-hV-VTmuxuqYwfx8Ca-3" value="Hardware" style="rounded=0;whiteSpace=wrap;html=1;fillColor=#dae8fc;strokeColor=#000000;fontSize=15;" vertex="1" parent="1">
          <mxGeometry x="280" y="160" width="120" height="60" as="geometry" />
        </mxCell>
        <mxCell id="t5-hV-VTmuxuqYwfx8Ca-112" style="edgeStyle=orthogonalEdgeStyle;rounded=0;orthogonalLoop=1;jettySize=auto;html=1;exitX=0.25;exitY=1;exitDx=0;exitDy=0;entryX=0;entryY=0.5;entryDx=0;entryDy=0;strokeColor=#000000;fontSize=15;" edge="1" parent="1" source="t5-hV-VTmuxuqYwfx8Ca-4" target="t5-hV-VTmuxuqYwfx8Ca-108">
          <mxGeometry relative="1" as="geometry" />
        </mxCell>
        <mxCell id="t5-hV-VTmuxuqYwfx8Ca-4" value="Software" style="rounded=0;whiteSpace=wrap;html=1;fillColor=#dae8fc;strokeColor=#000000;fontSize=15;" vertex="1" parent="1">
          <mxGeometry x="820" y="160" width="120" height="60" as="geometry" />
        </mxCell>
        <mxCell id="t5-hV-VTmuxuqYwfx8Ca-63" style="edgeStyle=orthogonalEdgeStyle;rounded=0;orthogonalLoop=1;jettySize=auto;html=1;exitX=0.25;exitY=1;exitDx=0;exitDy=0;entryX=0;entryY=0.5;entryDx=0;entryDy=0;strokeColor=#000000;fontSize=15;" edge="1" parent="1" source="t5-hV-VTmuxuqYwfx8Ca-5" target="t5-hV-VTmuxuqYwfx8Ca-61">
          <mxGeometry relative="1" as="geometry" />
        </mxCell>
        <mxCell id="t5-hV-VTmuxuqYwfx8Ca-67" style="edgeStyle=orthogonalEdgeStyle;rounded=0;orthogonalLoop=1;jettySize=auto;html=1;exitX=0.25;exitY=1;exitDx=0;exitDy=0;entryX=0;entryY=0.5;entryDx=0;entryDy=0;strokeColor=#000000;fontSize=15;" edge="1" parent="1" source="t5-hV-VTmuxuqYwfx8Ca-5" target="t5-hV-VTmuxuqYwfx8Ca-66">
          <mxGeometry relative="1" as="geometry" />
        </mxCell>
        <mxCell id="t5-hV-VTmuxuqYwfx8Ca-71" style="edgeStyle=orthogonalEdgeStyle;rounded=0;orthogonalLoop=1;jettySize=auto;html=1;exitX=0.25;exitY=1;exitDx=0;exitDy=0;entryX=0;entryY=0.5;entryDx=0;entryDy=0;strokeColor=#000000;fontSize=15;" edge="1" parent="1" source="t5-hV-VTmuxuqYwfx8Ca-5" target="t5-hV-VTmuxuqYwfx8Ca-68">
          <mxGeometry relative="1" as="geometry" />
        </mxCell>
        <mxCell id="t5-hV-VTmuxuqYwfx8Ca-72" style="edgeStyle=orthogonalEdgeStyle;rounded=0;orthogonalLoop=1;jettySize=auto;html=1;exitX=0.25;exitY=1;exitDx=0;exitDy=0;entryX=0;entryY=0.5;entryDx=0;entryDy=0;strokeColor=#000000;fontSize=15;" edge="1" parent="1" source="t5-hV-VTmuxuqYwfx8Ca-5" target="t5-hV-VTmuxuqYwfx8Ca-69">
          <mxGeometry relative="1" as="geometry" />
        </mxCell>
        <mxCell id="t5-hV-VTmuxuqYwfx8Ca-73" style="edgeStyle=orthogonalEdgeStyle;rounded=0;orthogonalLoop=1;jettySize=auto;html=1;exitX=0.25;exitY=1;exitDx=0;exitDy=0;entryX=0;entryY=0.5;entryDx=0;entryDy=0;strokeColor=#000000;fontSize=15;" edge="1" parent="1" source="t5-hV-VTmuxuqYwfx8Ca-5" target="t5-hV-VTmuxuqYwfx8Ca-70">
          <mxGeometry relative="1" as="geometry" />
        </mxCell>
        <mxCell id="t5-hV-VTmuxuqYwfx8Ca-76" style="edgeStyle=orthogonalEdgeStyle;rounded=0;orthogonalLoop=1;jettySize=auto;html=1;exitX=0.25;exitY=1;exitDx=0;exitDy=0;entryX=0;entryY=0.5;entryDx=0;entryDy=0;strokeColor=#000000;fontSize=15;" edge="1" parent="1" source="t5-hV-VTmuxuqYwfx8Ca-5" target="t5-hV-VTmuxuqYwfx8Ca-74">
          <mxGeometry relative="1" as="geometry" />
        </mxCell>
        <mxCell id="t5-hV-VTmuxuqYwfx8Ca-86" style="edgeStyle=orthogonalEdgeStyle;rounded=0;orthogonalLoop=1;jettySize=auto;html=1;exitX=0.25;exitY=1;exitDx=0;exitDy=0;entryX=0;entryY=0.5;entryDx=0;entryDy=0;strokeColor=#000000;fontSize=15;" edge="1" parent="1" source="t5-hV-VTmuxuqYwfx8Ca-5" target="t5-hV-VTmuxuqYwfx8Ca-85">
          <mxGeometry relative="1" as="geometry" />
        </mxCell>
        <mxCell id="t5-hV-VTmuxuqYwfx8Ca-5" value="Documents" style="rounded=0;whiteSpace=wrap;html=1;fillColor=#dae8fc;strokeColor=#000000;fontSize=15;" vertex="1" parent="1">
          <mxGeometry x="1060" y="160" width="120" height="60" as="geometry" />
        </mxCell>
        <mxCell id="t5-hV-VTmuxuqYwfx8Ca-83" style="edgeStyle=orthogonalEdgeStyle;rounded=0;orthogonalLoop=1;jettySize=auto;html=1;exitX=0.25;exitY=1;exitDx=0;exitDy=0;entryX=0;entryY=0.5;entryDx=0;entryDy=0;strokeColor=#000000;fontSize=15;" edge="1" parent="1" source="t5-hV-VTmuxuqYwfx8Ca-6" target="t5-hV-VTmuxuqYwfx8Ca-77">
          <mxGeometry relative="1" as="geometry" />
        </mxCell>
        <mxCell id="t5-hV-VTmuxuqYwfx8Ca-117" style="edgeStyle=orthogonalEdgeStyle;rounded=0;orthogonalLoop=1;jettySize=auto;html=1;exitX=0.25;exitY=1;exitDx=0;exitDy=0;entryX=0;entryY=0.5;entryDx=0;entryDy=0;strokeColor=#000000;fontSize=15;" edge="1" parent="1" source="t5-hV-VTmuxuqYwfx8Ca-6" target="t5-hV-VTmuxuqYwfx8Ca-116">
          <mxGeometry relative="1" as="geometry" />
        </mxCell>
        <mxCell id="t5-hV-VTmuxuqYwfx8Ca-119" style="edgeStyle=orthogonalEdgeStyle;rounded=0;orthogonalLoop=1;jettySize=auto;html=1;exitX=0.25;exitY=1;exitDx=0;exitDy=0;entryX=0;entryY=0.5;entryDx=0;entryDy=0;strokeColor=#000000;fontSize=15;" edge="1" parent="1" source="t5-hV-VTmuxuqYwfx8Ca-6" target="t5-hV-VTmuxuqYwfx8Ca-118">
          <mxGeometry relative="1" as="geometry" />
        </mxCell>
        <mxCell id="t5-hV-VTmuxuqYwfx8Ca-6" value="Training" style="rounded=0;whiteSpace=wrap;html=1;fillColor=#dae8fc;strokeColor=#000000;fontSize=15;" vertex="1" parent="1">
          <mxGeometry x="1300" y="160" width="120" height="60" as="geometry" />
        </mxCell>
        <mxCell id="t5-hV-VTmuxuqYwfx8Ca-19" value="Medical services" style="whiteSpace=wrap;html=1;rounded=0;fillColor=#f9f7ed;strokeColor=#000000;fontSize=15;" vertex="1" parent="1">
          <mxGeometry x="90" y="240" width="120" height="60" as="geometry" />
        </mxCell>
        <mxCell id="t5-hV-VTmuxuqYwfx8Ca-21" value="Patients, rooms &amp;amp; beds" style="whiteSpace=wrap;html=1;rounded=0;fillColor=#f9f7ed;strokeColor=#000000;fontSize=15;" vertex="1" parent="1">
          <mxGeometry x="90" y="320" width="120" height="60" as="geometry" />
        </mxCell>
        <mxCell id="t5-hV-VTmuxuqYwfx8Ca-25" value="" style="edgeStyle=orthogonalEdgeStyle;rounded=0;orthogonalLoop=1;jettySize=auto;html=1;entryX=0;entryY=0.5;entryDx=0;entryDy=0;exitX=0.25;exitY=1;exitDx=0;exitDy=0;strokeColor=#000000;fontSize=15;" edge="1" parent="1" source="t5-hV-VTmuxuqYwfx8Ca-26" target="t5-hV-VTmuxuqYwfx8Ca-28">
          <mxGeometry relative="1" as="geometry">
            <mxPoint x="380" y="350" as="targetPoint" />
          </mxGeometry>
        </mxCell>
        <mxCell id="t5-hV-VTmuxuqYwfx8Ca-38" style="edgeStyle=orthogonalEdgeStyle;rounded=0;orthogonalLoop=1;jettySize=auto;html=1;exitX=0.25;exitY=1;exitDx=0;exitDy=0;entryX=0;entryY=0.5;entryDx=0;entryDy=0;strokeColor=#000000;fontSize=15;" edge="1" parent="1" source="t5-hV-VTmuxuqYwfx8Ca-26" target="t5-hV-VTmuxuqYwfx8Ca-37">
          <mxGeometry relative="1" as="geometry" />
        </mxCell>
        <mxCell id="t5-hV-VTmuxuqYwfx8Ca-40" style="edgeStyle=orthogonalEdgeStyle;rounded=0;orthogonalLoop=1;jettySize=auto;html=1;exitX=0.25;exitY=1;exitDx=0;exitDy=0;entryX=0;entryY=0.5;entryDx=0;entryDy=0;strokeColor=#000000;fontSize=15;" edge="1" parent="1" source="t5-hV-VTmuxuqYwfx8Ca-26" target="t5-hV-VTmuxuqYwfx8Ca-39">
          <mxGeometry relative="1" as="geometry" />
        </mxCell>
        <mxCell id="t5-hV-VTmuxuqYwfx8Ca-26" value="Card System" style="whiteSpace=wrap;html=1;rounded=0;fillColor=#f9f7ed;strokeColor=#000000;fontSize=15;" vertex="1" parent="1">
          <mxGeometry x="330" y="240" width="120" height="60" as="geometry" />
        </mxCell>
        <mxCell id="t5-hV-VTmuxuqYwfx8Ca-46" style="edgeStyle=orthogonalEdgeStyle;rounded=0;orthogonalLoop=1;jettySize=auto;html=1;exitX=0.25;exitY=1;exitDx=0;exitDy=0;entryX=0;entryY=0.5;entryDx=0;entryDy=0;strokeColor=#000000;fontSize=15;" edge="1" parent="1" source="t5-hV-VTmuxuqYwfx8Ca-27" target="t5-hV-VTmuxuqYwfx8Ca-41">
          <mxGeometry relative="1" as="geometry" />
        </mxCell>
        <mxCell id="t5-hV-VTmuxuqYwfx8Ca-47" style="edgeStyle=orthogonalEdgeStyle;rounded=0;orthogonalLoop=1;jettySize=auto;html=1;exitX=0.25;exitY=1;exitDx=0;exitDy=0;entryX=0;entryY=0.5;entryDx=0;entryDy=0;strokeColor=#000000;fontSize=15;" edge="1" parent="1" source="t5-hV-VTmuxuqYwfx8Ca-27" target="t5-hV-VTmuxuqYwfx8Ca-42">
          <mxGeometry relative="1" as="geometry" />
        </mxCell>
        <mxCell id="t5-hV-VTmuxuqYwfx8Ca-48" style="edgeStyle=orthogonalEdgeStyle;rounded=0;orthogonalLoop=1;jettySize=auto;html=1;exitX=0.25;exitY=1;exitDx=0;exitDy=0;entryX=0;entryY=0.5;entryDx=0;entryDy=0;strokeColor=#000000;fontSize=15;" edge="1" parent="1" source="t5-hV-VTmuxuqYwfx8Ca-27" target="t5-hV-VTmuxuqYwfx8Ca-43">
          <mxGeometry relative="1" as="geometry" />
        </mxCell>
        <mxCell id="t5-hV-VTmuxuqYwfx8Ca-27" value="IT Structure" style="whiteSpace=wrap;html=1;rounded=0;fillColor=#f9f7ed;strokeColor=#000000;fontSize=15;" vertex="1" parent="1">
          <mxGeometry x="330" y="560" width="120" height="60" as="geometry" />
        </mxCell>
        <mxCell id="t5-hV-VTmuxuqYwfx8Ca-28" value="Card Reader" style="whiteSpace=wrap;html=1;rounded=0;fillColor=#ffe6cc;strokeColor=#000000;fontSize=15;" vertex="1" parent="1">
          <mxGeometry x="380" y="320" width="120" height="60" as="geometry" />
        </mxCell>
        <mxCell id="t5-hV-VTmuxuqYwfx8Ca-31" style="edgeStyle=orthogonalEdgeStyle;rounded=0;orthogonalLoop=1;jettySize=auto;html=1;exitX=0.25;exitY=1;exitDx=0;exitDy=0;entryX=0;entryY=0.5;entryDx=0;entryDy=0;strokeColor=#000000;fontSize=15;" edge="1" parent="1" target="t5-hV-VTmuxuqYwfx8Ca-34" source="t5-hV-VTmuxuqYwfx8Ca-4">
          <mxGeometry relative="1" as="geometry">
            <mxPoint x="860" y="220" as="sourcePoint" />
          </mxGeometry>
        </mxCell>
        <mxCell id="t5-hV-VTmuxuqYwfx8Ca-32" style="edgeStyle=orthogonalEdgeStyle;rounded=0;orthogonalLoop=1;jettySize=auto;html=1;exitX=0.25;exitY=1;exitDx=0;exitDy=0;entryX=0;entryY=0.5;entryDx=0;entryDy=0;strokeColor=#000000;fontSize=15;" edge="1" parent="1" target="t5-hV-VTmuxuqYwfx8Ca-35" source="t5-hV-VTmuxuqYwfx8Ca-4">
          <mxGeometry relative="1" as="geometry">
            <mxPoint x="860" y="220" as="sourcePoint" />
          </mxGeometry>
        </mxCell>
        <mxCell id="t5-hV-VTmuxuqYwfx8Ca-33" value="" style="edgeStyle=orthogonalEdgeStyle;rounded=0;orthogonalLoop=1;jettySize=auto;html=1;entryX=0;entryY=0.5;entryDx=0;entryDy=0;exitX=0.25;exitY=1;exitDx=0;exitDy=0;strokeColor=#000000;fontSize=15;" edge="1" parent="1" source="t5-hV-VTmuxuqYwfx8Ca-34" target="t5-hV-VTmuxuqYwfx8Ca-36">
          <mxGeometry relative="1" as="geometry" />
        </mxCell>
        <mxCell id="t5-hV-VTmuxuqYwfx8Ca-88" style="edgeStyle=orthogonalEdgeStyle;rounded=0;orthogonalLoop=1;jettySize=auto;html=1;exitX=0.25;exitY=1;exitDx=0;exitDy=0;entryX=0;entryY=0.5;entryDx=0;entryDy=0;strokeColor=#000000;fontSize=15;" edge="1" parent="1" source="t5-hV-VTmuxuqYwfx8Ca-34" target="t5-hV-VTmuxuqYwfx8Ca-87">
          <mxGeometry relative="1" as="geometry" />
        </mxCell>
        <mxCell id="t5-hV-VTmuxuqYwfx8Ca-34" value="Visits API" style="whiteSpace=wrap;html=1;rounded=0;fillColor=#f9f7ed;strokeColor=#000000;fontSize=15;" vertex="1" parent="1">
          <mxGeometry x="870" y="240" width="120" height="60" as="geometry" />
        </mxCell>
        <mxCell id="t5-hV-VTmuxuqYwfx8Ca-55" style="edgeStyle=orthogonalEdgeStyle;rounded=0;orthogonalLoop=1;jettySize=auto;html=1;exitX=0.25;exitY=1;exitDx=0;exitDy=0;entryX=0;entryY=0.5;entryDx=0;entryDy=0;strokeColor=#000000;fontSize=15;" edge="1" parent="1" source="t5-hV-VTmuxuqYwfx8Ca-35" target="t5-hV-VTmuxuqYwfx8Ca-53">
          <mxGeometry relative="1" as="geometry" />
        </mxCell>
        <mxCell id="t5-hV-VTmuxuqYwfx8Ca-56" style="edgeStyle=orthogonalEdgeStyle;rounded=0;orthogonalLoop=1;jettySize=auto;html=1;exitX=0.25;exitY=1;exitDx=0;exitDy=0;entryX=0;entryY=0.5;entryDx=0;entryDy=0;strokeColor=#000000;fontSize=15;" edge="1" parent="1" source="t5-hV-VTmuxuqYwfx8Ca-35" target="t5-hV-VTmuxuqYwfx8Ca-54">
          <mxGeometry relative="1" as="geometry" />
        </mxCell>
        <mxCell id="t5-hV-VTmuxuqYwfx8Ca-60" style="edgeStyle=orthogonalEdgeStyle;rounded=0;orthogonalLoop=1;jettySize=auto;html=1;exitX=0.25;exitY=1;exitDx=0;exitDy=0;entryX=0;entryY=0.5;entryDx=0;entryDy=0;strokeColor=#000000;fontSize=15;" edge="1" parent="1" source="t5-hV-VTmuxuqYwfx8Ca-35" target="t5-hV-VTmuxuqYwfx8Ca-59">
          <mxGeometry relative="1" as="geometry" />
        </mxCell>
        <mxCell id="t5-hV-VTmuxuqYwfx8Ca-35" value="Card Software" style="whiteSpace=wrap;html=1;rounded=0;fillColor=#f9f7ed;strokeColor=#000000;fontSize=15;" vertex="1" parent="1">
          <mxGeometry x="870" y="480" width="120" height="60" as="geometry" />
        </mxCell>
        <mxCell id="t5-hV-VTmuxuqYwfx8Ca-36" value="Self-register&lt;br style=&quot;font-size: 15px;&quot;&gt;&amp;nbsp;visitor form" style="whiteSpace=wrap;html=1;rounded=0;fillColor=#ffe6cc;strokeColor=#000000;fontSize=15;" vertex="1" parent="1">
          <mxGeometry x="920" y="320" width="120" height="60" as="geometry" />
        </mxCell>
        <mxCell id="t5-hV-VTmuxuqYwfx8Ca-37" value="Card Printer" style="whiteSpace=wrap;html=1;rounded=0;fillColor=#ffe6cc;strokeColor=#000000;fontSize=15;" vertex="1" parent="1">
          <mxGeometry x="380" y="400" width="120" height="60" as="geometry" />
        </mxCell>
        <mxCell id="t5-hV-VTmuxuqYwfx8Ca-39" value="Cards" style="whiteSpace=wrap;html=1;rounded=0;fillColor=#ffe6cc;strokeColor=#000000;fontSize=15;" vertex="1" parent="1">
          <mxGeometry x="380" y="480" width="120" height="60" as="geometry" />
        </mxCell>
        <mxCell id="t5-hV-VTmuxuqYwfx8Ca-41" value="Workstation" style="whiteSpace=wrap;html=1;rounded=0;fillColor=#ffe6cc;strokeColor=#000000;fontSize=15;" vertex="1" parent="1">
          <mxGeometry x="380" y="640" width="120" height="60" as="geometry" />
        </mxCell>
        <mxCell id="t5-hV-VTmuxuqYwfx8Ca-42" value="Servers" style="whiteSpace=wrap;html=1;rounded=0;fillColor=#ffe6cc;strokeColor=#000000;fontSize=15;" vertex="1" parent="1">
          <mxGeometry x="380" y="720" width="120" height="60" as="geometry" />
        </mxCell>
        <mxCell id="t5-hV-VTmuxuqYwfx8Ca-43" value="LAN Gear" style="whiteSpace=wrap;html=1;rounded=0;fillColor=#ffe6cc;strokeColor=#000000;fontSize=15;" vertex="1" parent="1">
          <mxGeometry x="380" y="800" width="120" height="60" as="geometry" />
        </mxCell>
        <mxCell id="t5-hV-VTmuxuqYwfx8Ca-44" value="Network &amp;amp; Power&lt;br style=&quot;font-size: 15px;&quot;&gt;Cabling" style="whiteSpace=wrap;html=1;rounded=0;fillColor=#f9f7ed;strokeColor=#000000;fontSize=15;" vertex="1" parent="1">
          <mxGeometry x="330" y="880" width="120" height="60" as="geometry" />
        </mxCell>
        <mxCell id="t5-hV-VTmuxuqYwfx8Ca-49" value="Staff &amp;amp; permissions" style="whiteSpace=wrap;html=1;rounded=0;fillColor=#f9f7ed;strokeColor=#000000;fontSize=15;" vertex="1" parent="1">
          <mxGeometry x="90" y="400" width="120" height="60" as="geometry" />
        </mxCell>
        <mxCell id="t5-hV-VTmuxuqYwfx8Ca-50" value="Visit logs" style="whiteSpace=wrap;html=1;rounded=0;fillColor=#f9f7ed;strokeColor=#000000;fontSize=15;" vertex="1" parent="1">
          <mxGeometry x="90" y="480" width="120" height="60" as="geometry" />
        </mxCell>
        <mxCell id="t5-hV-VTmuxuqYwfx8Ca-53" value="Card reader API" style="whiteSpace=wrap;html=1;rounded=0;fillColor=#ffe6cc;strokeColor=#000000;fontSize=15;" vertex="1" parent="1">
          <mxGeometry x="920" y="560" width="120" height="60" as="geometry" />
        </mxCell>
        <mxCell id="t5-hV-VTmuxuqYwfx8Ca-54" value="Card printer API" style="whiteSpace=wrap;html=1;rounded=0;fillColor=#ffe6cc;strokeColor=#000000;fontSize=15;" vertex="1" parent="1">
          <mxGeometry x="920" y="640" width="120" height="60" as="geometry" />
        </mxCell>
        <mxCell id="t5-hV-VTmuxuqYwfx8Ca-57" value="Card database" style="whiteSpace=wrap;html=1;rounded=0;fillColor=#f9f7ed;strokeColor=#000000;fontSize=15;" vertex="1" parent="1">
          <mxGeometry x="90" y="560" width="120" height="60" as="geometry" />
        </mxCell>
        <mxCell id="t5-hV-VTmuxuqYwfx8Ca-59" value="Door control API" style="whiteSpace=wrap;html=1;rounded=0;fillColor=#ffe6cc;strokeColor=#000000;fontSize=15;" vertex="1" parent="1">
          <mxGeometry x="920" y="720" width="120" height="60" as="geometry" />
        </mxCell>
        <mxCell id="t5-hV-VTmuxuqYwfx8Ca-61" value="System installation plan" style="whiteSpace=wrap;html=1;rounded=0;fillColor=#f9f7ed;strokeColor=#000000;fontSize=15;" vertex="1" parent="1">
          <mxGeometry x="1120" y="320" width="120" height="60" as="geometry" />
        </mxCell>
        <mxCell id="t5-hV-VTmuxuqYwfx8Ca-66" value="Technical System&amp;nbsp; Specification" style="whiteSpace=wrap;html=1;rounded=0;fillColor=#f9f7ed;strokeColor=#000000;fontSize=15;" vertex="1" parent="1">
          <mxGeometry x="1120" y="400" width="120" height="60" as="geometry" />
        </mxCell>
        <mxCell id="t5-hV-VTmuxuqYwfx8Ca-68" value="User/Quick guide" style="whiteSpace=wrap;html=1;rounded=0;fillColor=#f9f7ed;strokeColor=#000000;fontSize=15;" vertex="1" parent="1">
          <mxGeometry x="1120" y="640" width="120" height="60" as="geometry" />
        </mxCell>
        <mxCell id="t5-hV-VTmuxuqYwfx8Ca-69" value="User Manual" style="whiteSpace=wrap;html=1;rounded=0;fillColor=#f9f7ed;strokeColor=#000000;fontSize=15;" vertex="1" parent="1">
          <mxGeometry x="1120" y="560" width="120" height="60" as="geometry" />
        </mxCell>
        <mxCell id="t5-hV-VTmuxuqYwfx8Ca-70" value="Maintenance Manual" style="whiteSpace=wrap;html=1;rounded=0;fillColor=#f9f7ed;strokeColor=#000000;fontSize=15;" vertex="1" parent="1">
          <mxGeometry x="1120" y="720" width="120" height="60" as="geometry" />
        </mxCell>
        <mxCell id="t5-hV-VTmuxuqYwfx8Ca-74" value="Tests Procedures" style="whiteSpace=wrap;html=1;rounded=0;fillColor=#f9f7ed;strokeColor=#000000;fontSize=15;" vertex="1" parent="1">
          <mxGeometry x="1120" y="480" width="120" height="60" as="geometry" />
        </mxCell>
        <mxCell id="t5-hV-VTmuxuqYwfx8Ca-77" value="Training Plan" style="whiteSpace=wrap;html=1;rounded=0;fillColor=#f9f7ed;strokeColor=#000000;fontSize=15;" vertex="1" parent="1">
          <mxGeometry x="1360" y="240" width="120" height="60" as="geometry" />
        </mxCell>
        <mxCell id="t5-hV-VTmuxuqYwfx8Ca-85" value="System architecture" style="whiteSpace=wrap;html=1;rounded=0;fillColor=#f9f7ed;strokeColor=#000000;fontSize=15;" vertex="1" parent="1">
          <mxGeometry x="1120" y="240" width="120" height="60" as="geometry" />
        </mxCell>
        <mxCell id="t5-hV-VTmuxuqYwfx8Ca-87" value="Hospital Calendar integrator" style="whiteSpace=wrap;html=1;rounded=0;fillColor=#ffe6cc;strokeColor=#000000;fontSize=15;" vertex="1" parent="1">
          <mxGeometry x="920" y="400" width="120" height="60" as="geometry" />
        </mxCell>
        <mxCell id="t5-hV-VTmuxuqYwfx8Ca-127" style="edgeStyle=orthogonalEdgeStyle;rounded=0;orthogonalLoop=1;jettySize=auto;html=1;exitX=0.25;exitY=1;exitDx=0;exitDy=0;entryX=0;entryY=0.5;entryDx=0;entryDy=0;strokeColor=#000000;fontSize=15;" edge="1" parent="1" source="t5-hV-VTmuxuqYwfx8Ca-98" target="t5-hV-VTmuxuqYwfx8Ca-120">
          <mxGeometry relative="1" as="geometry" />
        </mxCell>
        <mxCell id="t5-hV-VTmuxuqYwfx8Ca-129" style="edgeStyle=orthogonalEdgeStyle;rounded=0;orthogonalLoop=1;jettySize=auto;html=1;exitX=0.25;exitY=1;exitDx=0;exitDy=0;entryX=0;entryY=0.5;entryDx=0;entryDy=0;strokeColor=#000000;fontSize=15;" edge="1" parent="1" source="t5-hV-VTmuxuqYwfx8Ca-98" target="t5-hV-VTmuxuqYwfx8Ca-128">
          <mxGeometry relative="1" as="geometry" />
        </mxCell>
        <mxCell id="t5-hV-VTmuxuqYwfx8Ca-98" value="Facilities" style="rounded=0;whiteSpace=wrap;html=1;fillColor=#dae8fc;strokeColor=#000000;fontSize=15;" vertex="1" parent="1">
          <mxGeometry x="520" y="160" width="120" height="60" as="geometry" />
        </mxCell>
        <mxCell id="t5-hV-VTmuxuqYwfx8Ca-113" style="edgeStyle=orthogonalEdgeStyle;rounded=0;orthogonalLoop=1;jettySize=auto;html=1;exitX=0.25;exitY=1;exitDx=0;exitDy=0;entryX=0;entryY=0.5;entryDx=0;entryDy=0;strokeColor=#000000;fontSize=15;" edge="1" parent="1" source="t5-hV-VTmuxuqYwfx8Ca-108" target="t5-hV-VTmuxuqYwfx8Ca-109">
          <mxGeometry relative="1" as="geometry" />
        </mxCell>
        <mxCell id="t5-hV-VTmuxuqYwfx8Ca-114" style="edgeStyle=orthogonalEdgeStyle;rounded=0;orthogonalLoop=1;jettySize=auto;html=1;exitX=0.25;exitY=1;exitDx=0;exitDy=0;entryX=0;entryY=0.5;entryDx=0;entryDy=0;strokeColor=#000000;fontSize=15;" edge="1" parent="1" source="t5-hV-VTmuxuqYwfx8Ca-108" target="t5-hV-VTmuxuqYwfx8Ca-110">
          <mxGeometry relative="1" as="geometry" />
        </mxCell>
        <mxCell id="t5-hV-VTmuxuqYwfx8Ca-115" style="edgeStyle=orthogonalEdgeStyle;rounded=0;orthogonalLoop=1;jettySize=auto;html=1;exitX=0.25;exitY=1;exitDx=0;exitDy=0;entryX=0;entryY=0.5;entryDx=0;entryDy=0;strokeColor=#000000;fontSize=15;" edge="1" parent="1" source="t5-hV-VTmuxuqYwfx8Ca-108" target="t5-hV-VTmuxuqYwfx8Ca-111">
          <mxGeometry relative="1" as="geometry" />
        </mxCell>
        <mxCell id="t5-hV-VTmuxuqYwfx8Ca-108" value="Hospital API" style="whiteSpace=wrap;html=1;rounded=0;fillColor=#f9f7ed;strokeColor=#000000;fontSize=15;" vertex="1" parent="1">
          <mxGeometry x="870" y="800" width="120" height="60" as="geometry" />
        </mxCell>
        <mxCell id="t5-hV-VTmuxuqYwfx8Ca-109" value="Medical services" style="whiteSpace=wrap;html=1;rounded=0;fillColor=#ffe6cc;strokeColor=#000000;fontSize=15;" vertex="1" parent="1">
          <mxGeometry x="920" y="880" width="120" height="60" as="geometry" />
        </mxCell>
        <mxCell id="t5-hV-VTmuxuqYwfx8Ca-110" value="Patients, rooms &amp;amp; beds" style="whiteSpace=wrap;html=1;rounded=0;fillColor=#ffe6cc;strokeColor=#000000;fontSize=15;" vertex="1" parent="1">
          <mxGeometry x="920" y="960" width="120" height="60" as="geometry" />
        </mxCell>
        <mxCell id="t5-hV-VTmuxuqYwfx8Ca-111" value="Staff &amp;amp; permissions" style="whiteSpace=wrap;html=1;rounded=0;fillColor=#ffe6cc;strokeColor=#000000;fontSize=15;" vertex="1" parent="1">
          <mxGeometry x="920" y="1040" width="120" height="60" as="geometry" />
        </mxCell>
        <mxCell id="t5-hV-VTmuxuqYwfx8Ca-116" value="Training Room" style="whiteSpace=wrap;html=1;rounded=0;fillColor=#f9f7ed;strokeColor=#000000;fontSize=15;" vertex="1" parent="1">
          <mxGeometry x="1360" y="320" width="120" height="60" as="geometry" />
        </mxCell>
        <mxCell id="t5-hV-VTmuxuqYwfx8Ca-118" value="Training Material" style="whiteSpace=wrap;html=1;rounded=0;fillColor=#f9f7ed;strokeColor=#000000;fontSize=15;" vertex="1" parent="1">
          <mxGeometry x="1360" y="400" width="120" height="60" as="geometry" />
        </mxCell>
        <mxCell id="t5-hV-VTmuxuqYwfx8Ca-135" style="edgeStyle=orthogonalEdgeStyle;rounded=0;orthogonalLoop=1;jettySize=auto;html=1;exitX=0.25;exitY=1;exitDx=0;exitDy=0;entryX=0;entryY=0.5;entryDx=0;entryDy=0;strokeColor=#000000;fontSize=15;" edge="1" parent="1" source="t5-hV-VTmuxuqYwfx8Ca-120" target="t5-hV-VTmuxuqYwfx8Ca-134">
          <mxGeometry relative="1" as="geometry" />
        </mxCell>
        <mxCell id="t5-hV-VTmuxuqYwfx8Ca-140" style="edgeStyle=orthogonalEdgeStyle;rounded=0;orthogonalLoop=1;jettySize=auto;html=1;exitX=0.25;exitY=1;exitDx=0;exitDy=0;entryX=0;entryY=0.5;entryDx=0;entryDy=0;strokeColor=#000000;fontSize=15;" edge="1" parent="1" source="t5-hV-VTmuxuqYwfx8Ca-120" target="t5-hV-VTmuxuqYwfx8Ca-132">
          <mxGeometry relative="1" as="geometry" />
        </mxCell>
        <mxCell id="t5-hV-VTmuxuqYwfx8Ca-141" style="edgeStyle=orthogonalEdgeStyle;rounded=0;orthogonalLoop=1;jettySize=auto;html=1;exitX=0.25;exitY=1;exitDx=0;exitDy=0;entryX=0;entryY=0.5;entryDx=0;entryDy=0;strokeColor=#000000;fontSize=15;" edge="1" parent="1" source="t5-hV-VTmuxuqYwfx8Ca-120" target="t5-hV-VTmuxuqYwfx8Ca-138">
          <mxGeometry relative="1" as="geometry" />
        </mxCell>
        <mxCell id="t5-hV-VTmuxuqYwfx8Ca-120" value="Datacenter" style="rounded=0;whiteSpace=wrap;html=1;fillColor=#f9f7ed;strokeColor=#000000;fontSize=15;" vertex="1" parent="1">
          <mxGeometry x="570" y="240" width="120" height="60" as="geometry" />
        </mxCell>
        <mxCell id="t5-hV-VTmuxuqYwfx8Ca-121" style="edgeStyle=orthogonalEdgeStyle;rounded=0;orthogonalLoop=1;jettySize=auto;html=1;exitX=0.25;exitY=1;exitDx=0;exitDy=0;entryX=0;entryY=0.5;entryDx=0;entryDy=0;strokeColor=#000000;fontSize=15;" edge="1" parent="1" source="t5-hV-VTmuxuqYwfx8Ca-120" target="t5-hV-VTmuxuqYwfx8Ca-124">
          <mxGeometry relative="1" as="geometry">
            <mxPoint x="610" y="300" as="sourcePoint" />
          </mxGeometry>
        </mxCell>
        <mxCell id="t5-hV-VTmuxuqYwfx8Ca-123" value="" style="edgeStyle=orthogonalEdgeStyle;rounded=0;orthogonalLoop=1;jettySize=auto;html=1;entryX=0;entryY=0.5;entryDx=0;entryDy=0;exitX=0.25;exitY=1;exitDx=0;exitDy=0;fillColor=#ffe6cc;strokeColor=#000000;fontSize=15;" edge="1" parent="1" source="t5-hV-VTmuxuqYwfx8Ca-124" target="t5-hV-VTmuxuqYwfx8Ca-126">
          <mxGeometry relative="1" as="geometry" />
        </mxCell>
        <mxCell id="t5-hV-VTmuxuqYwfx8Ca-124" value="Technical Room Preparation" style="whiteSpace=wrap;html=1;rounded=0;fillColor=#ffe6cc;strokeColor=#000000;fontSize=15;" vertex="1" parent="1">
          <mxGeometry x="620" y="320" width="120" height="60" as="geometry" />
        </mxCell>
        <mxCell id="t5-hV-VTmuxuqYwfx8Ca-126" value="Hardware &lt;br style=&quot;font-size: 15px;&quot;&gt;installation" style="whiteSpace=wrap;html=1;rounded=0;fillColor=#e1d5e7;strokeColor=#000000;fontSize=15;" vertex="1" parent="1">
          <mxGeometry x="670" y="400" width="120" height="60" as="geometry" />
        </mxCell>
        <mxCell id="t5-hV-VTmuxuqYwfx8Ca-131" style="edgeStyle=orthogonalEdgeStyle;rounded=0;orthogonalLoop=1;jettySize=auto;html=1;exitX=0.25;exitY=1;exitDx=0;exitDy=0;entryX=0;entryY=0.5;entryDx=0;entryDy=0;strokeColor=#000000;fontSize=15;" edge="1" parent="1" source="t5-hV-VTmuxuqYwfx8Ca-128" target="t5-hV-VTmuxuqYwfx8Ca-130">
          <mxGeometry relative="1" as="geometry" />
        </mxCell>
        <mxCell id="t5-hV-VTmuxuqYwfx8Ca-137" style="edgeStyle=orthogonalEdgeStyle;rounded=0;orthogonalLoop=1;jettySize=auto;html=1;exitX=0.25;exitY=1;exitDx=0;exitDy=0;entryX=0;entryY=0.5;entryDx=0;entryDy=0;strokeColor=#000000;fontSize=15;" edge="1" parent="1" source="t5-hV-VTmuxuqYwfx8Ca-128" target="t5-hV-VTmuxuqYwfx8Ca-136">
          <mxGeometry relative="1" as="geometry" />
        </mxCell>
        <mxCell id="t5-hV-VTmuxuqYwfx8Ca-128" value="Main lobby &amp;amp; Visitor halls" style="rounded=0;whiteSpace=wrap;html=1;fillColor=#f9f7ed;strokeColor=#000000;fontSize=15;" vertex="1" parent="1">
          <mxGeometry x="580" y="720" width="120" height="60" as="geometry" />
        </mxCell>
        <mxCell id="t5-hV-VTmuxuqYwfx8Ca-130" value="Door card &lt;br style=&quot;font-size: 15px;&quot;&gt;Reader" style="whiteSpace=wrap;html=1;rounded=0;fillColor=#ffe6cc;strokeColor=#000000;fontSize=15;" vertex="1" parent="1">
          <mxGeometry x="630" y="800" width="120" height="60" as="geometry" />
        </mxCell>
        <mxCell id="t5-hV-VTmuxuqYwfx8Ca-132" value="Cyber Security &lt;br style=&quot;font-size: 15px;&quot;&gt;tools" style="whiteSpace=wrap;html=1;rounded=0;fillColor=#ffe6cc;strokeColor=#000000;fontSize=15;" vertex="1" parent="1">
          <mxGeometry x="620" y="560" width="120" height="60" as="geometry" />
        </mxCell>
        <mxCell id="t5-hV-VTmuxuqYwfx8Ca-134" value="Access Control" style="whiteSpace=wrap;html=1;rounded=0;fillColor=#ffe6cc;strokeColor=#000000;fontSize=15;" vertex="1" parent="1">
          <mxGeometry x="620" y="480" width="120" height="60" as="geometry" />
        </mxCell>
        <mxCell id="t5-hV-VTmuxuqYwfx8Ca-136" value="Emergency &lt;br style=&quot;font-size: 15px;&quot;&gt;override systrem" style="whiteSpace=wrap;html=1;rounded=0;fillColor=#ffe6cc;strokeColor=#000000;fontSize=15;" vertex="1" parent="1">
          <mxGeometry x="630" y="880" width="120" height="60" as="geometry" />
        </mxCell>
        <mxCell id="t5-hV-VTmuxuqYwfx8Ca-138" value="Backup tools" style="whiteSpace=wrap;html=1;rounded=0;fillColor=#ffe6cc;strokeColor=#000000;fontSize=15;" vertex="1" parent="1">
          <mxGeometry x="620" y="640" width="120" height="60" as="geometry" />
        </mxCell>
        <mxCell id="t5-hV-VTmuxuqYwfx8Ca-143" value="Project 1 - Hospital Visits Registration System&lt;br&gt;Group 1:&lt;br&gt;&lt;span style=&quot;background-color: initial;&quot;&gt;- Fernando Pais - 1910361&lt;/span&gt;&lt;br&gt;&lt;span style=&quot;background-color: initial;&quot;&gt;- Carlos Rijo - 1101626&lt;/span&gt;" style="whiteSpace=wrap;html=1;fontSize=28;align=left;fillColor=none;strokeColor=none;" vertex="1" parent="1">
          <mxGeometry y="1010" width="599" height="159" as="geometry" />
        </mxCell>
      </root>
    </mxGraphModel>
  </diagram>
</mxfile>
